<svg width="20" height="20" viewBox="0 0 50 50" xmlns="http://www.w3.org/2000/svg">
    <path
        d="M3.00004 7.00037C2.44924 7.00037 2 7.44961 2 8.00041V12.0006C2 12.5514 2.44924 13.0006 3.00004 13.0006H7.00022C7.55103 13.0006 8.00027 12.5514 8.00027 12.0006V8.00041C8.00027 7.44961 7.55103 7.00037 7.00022 7.00037H3.00004ZM11.8129 8.00041C10.7074 8.05119 9.85582 8.98873 9.9066 10.0943C9.95738 11.1998 10.8949 12.0514 12.0004 12.0006H46.002C46.7246 12.0123 47.3926 11.6334 47.7559 11.0084C48.1231 10.3872 48.1231 9.61376 47.7559 8.99264C47.3926 8.36762 46.7246 7.98869 46.002 8.00041H12.0004C11.9379 7.9965 11.8754 7.9965 11.8129 8.00041ZM3.00004 17.0008C2.44924 17.0008 2 17.45 2 18.0009V22.001C2 22.5518 2.44924 23.0011 3.00004 23.0011H7.00022C7.55103 23.0011 8.00027 22.5518 8.00027 22.001V18.0009C8.00027 17.45 7.55103 17.0008 7.00022 17.0008H3.00004ZM11.8129 18.0009C10.7074 18.0516 9.85582 18.9892 9.9066 20.0947C9.95738 21.2002 10.8949 22.0518 12.0004 22.001H46.002C46.7246 22.0128 47.3926 21.6338 47.7559 21.0088C48.1231 20.3877 48.1231 19.6142 47.7559 18.9931C47.3926 18.3681 46.7246 17.9891 46.002 18.0009H12.0004C11.9379 17.9969 11.8754 17.9969 11.8129 18.0009ZM3.00004 27.0013C2.44924 27.0013 2 27.4466 2 28.0013V32.0015C2 32.5562 2.44924 33.0015 3.00004 33.0015H7.00022C7.55103 33.0015 8.00027 32.5562 8.00027 32.0015V28.0013C8.00027 27.4466 7.55103 27.0013 7.00022 27.0013H3.00004ZM11.8129 28.0013C10.7074 28.0521 9.85582 28.9896 9.9066 30.0951C9.95738 31.2007 10.8949 32.0523 12.0004 32.0015H46.002C46.7246 32.0132 47.3926 31.6343 47.7559 31.0092C48.1231 30.3881 48.1231 29.6146 47.7559 28.9935C47.3926 28.3685 46.7246 27.9896 46.002 28.0013H12.0004C11.9379 27.9974 11.8754 27.9974 11.8129 28.0013ZM3.00004 37.0017C2.44924 37.0017 2 37.447 2 38.0017V42.0019C2 42.5566 2.44924 43.002 3.00004 43.002H7.00022C7.55103 43.002 8.00027 42.5566 8.00027 42.0019V38.0017C8.00027 37.447 7.55103 37.0017 7.00022 37.0017H3.00004ZM11.8129 38.0017C10.7074 38.0525 9.85582 38.9901 9.9066 40.0956C9.95738 41.2011 10.8949 42.0527 12.0004 42.0019H46.002C46.7246 42.0136 47.3926 41.6347 47.7559 41.0097C48.1231 40.3886 48.1231 39.6151 47.7559 38.994C47.3926 38.3689 46.7246 37.99 46.002 38.0017H12.0004C11.9379 37.9978 11.8754 37.9978 11.8129 38.0017Z" />
</svg>