<svg width="20" height="20" viewBox="0 0 50 50" xmlns="http://www.w3.org/2000/svg">
    <path
        d="M25.001 1.05078C24.7835 1.05078 24.5668 1.11976 24.3818 1.25977L1.3808 19.2117C0.950782 19.5518 0.870859 20.18 1.21087 20.62C1.55089 21.05 2.17912 21.1299 2.61914 20.7899L4.00006 19.7118V46.002C4.00006 46.552 4.45008 47.002 5.0001 47.002H19.0007V29.0012H31.0013V47.002H45.0019C45.5519 47.002 46.0019 46.552 46.0019 46.002V19.7118L47.3828 20.7899C47.5728 20.9299 47.782 21.0009 48.002 21.0009C48.302 21.0009 48.5911 20.87 48.7911 20.62C49.1311 20.18 49.0512 19.5518 48.6212 19.2117L25.6202 1.25977C25.4352 1.11976 25.2185 1.05078 25.001 1.05078ZM35.0014 5.00018V6.051L41.0017 10.7309V5.00018H35.0014Z" />
</svg>