<svg width="35" height="35" viewBox="0 0 35 35" fill="none" xmlns="http://www.w3.org/2000/svg">
<path d="M17.5014 2.18762L18.1621 3.55491C18.9125 5.10816 20.9412 5.51142 22.229 4.36362L23.3622 3.35365L23.449 4.8697C23.5481 6.59213 25.2676 7.74065 26.8967 7.17332L28.3304 6.6738L27.8309 8.10745C27.2628 9.73654 28.4121 11.456 30.1345 11.5552L31.6505 11.642L30.6406 12.7752C29.4928 14.063 29.896 16.091 31.4493 16.8421L32.8151 17.5013L31.4478 18.162C29.8946 18.9123 29.4913 20.941 30.6391 22.2289L31.6491 23.3621L30.133 23.4488C28.4106 23.548 27.2621 25.2675 27.8294 26.8966L28.3289 28.3303L26.8953 27.8307C25.2662 27.2627 23.5467 28.4119 23.4475 30.1344L23.3607 31.6504L22.2275 30.6404C20.9397 29.4926 18.9117 29.8959 18.1606 31.4491L17.5014 32.815L16.8407 31.4477C16.0904 29.8944 14.0617 29.4912 12.7739 30.639L11.6407 31.649L11.5539 30.1329C11.4547 28.4105 9.7352 27.2619 8.10612 27.8293L6.67246 28.3288L7.17198 26.8952C7.74005 25.2661 6.59079 23.5466 4.86837 23.4474L3.35231 23.3606L4.36229 22.2274C5.51008 20.9396 5.10682 18.9116 3.55358 18.1605L2.18774 17.5013L3.55504 16.8406C5.10828 16.0903 5.51154 14.0616 4.36375 12.7738L3.35377 11.6405L4.86983 11.5538C6.59225 11.4546 7.74078 9.73508 7.17344 8.10599L6.67319 6.67307L8.10685 7.17259C9.73593 7.74065 11.4554 6.5914 11.5546 4.86897L11.6414 3.35292L12.7746 4.36289C14.0624 5.51069 16.0904 5.10743 16.8415 3.55419L17.5014 2.18762Z" fill="url(#paint0_radial_115_113)"/>
<defs>
<radialGradient id="paint0_radial_115_113" cx="0" cy="0" r="1" gradientUnits="userSpaceOnUse" gradientTransform="translate(17.5014 17.5013) scale(15.3137)">
<stop stop-color="#FFE16E"/>
<stop offset="0.583" stop-color="#FCBF22"/>
<stop offset="0.654" stop-color="#FEA20F"/>
<stop offset="0.718" stop-color="#FFE200"/>
<stop offset="0.797" stop-color="#FFCE79"/>
<stop offset="0.928" stop-color="#FFC400"/>
<stop offset="1" stop-color="#FFD000"/>
</radialGradient>
</defs>
</svg>
