<svg width="31" height="31" viewBox="0 0 31 31" fill="none" xmlns="http://www.w3.org/2000/svg">
<g clip-path="url(#clip0_115_99)">
<path d="M10.6482 27.1248C9.81376 25.4661 9.33258 23.5995 9.33258 21.616C9.33258 14.8317 14.8323 9.33197 21.6166 9.33197C23.6001 9.33197 25.4667 9.81315 27.1254 10.6476C25.1044 6.63347 20.9578 3.87297 16.157 3.87297C9.37262 3.87297 3.87293 9.37266 3.87293 16.157C3.87293 20.9579 6.63343 25.1044 10.6482 27.1248Z" fill="url(#paint0_radial_115_99)"/>
<path d="M8.57623 10.4235C8.76483 10.5688 8.91144 10.8607 8.7448 11.0313C8.95084 11.2644 9.3177 11.0035 9.51147 10.76C9.70523 10.5165 10.0902 10.2717 10.2781 10.5197C10.4021 10.7794 9.899 10.9421 9.88027 11.2295C9.87445 11.3251 9.92548 11.4149 9.93258 11.5099C9.95325 11.785 9.63419 11.9394 9.38358 12.0563C9.05095 12.2119 8.74997 12.4348 8.50324 12.7073C8.29462 12.9386 8.17449 13.3868 8.46707 13.494C8.56137 13.5289 8.66988 13.5069 8.76353 13.5437C9.01608 13.6426 8.95149 14.0068 8.97345 14.2768C9.0122 14.7528 9.54183 15.1236 10.0023 14.9963C10.304 14.913 10.5675 14.6566 10.8782 14.6928C11.0383 14.7115 11.1882 14.8052 11.3329 14.9053C13.5263 11.5518 17.3086 9.33194 21.6147 9.33194C21.853 9.33194 22.0894 9.33969 22.3245 9.35325C22.3258 9.34744 22.3238 9.34292 22.3251 9.33711C22.4072 9.04323 22.7521 8.89468 23.0569 8.91018C23.3618 8.92568 23.646 9.06002 23.9386 9.14657C24.3577 9.27058 24.8053 9.29771 25.2368 9.22472C25.3776 9.20083 25.5281 9.15949 25.6146 9.04581C25.7012 8.93214 25.7012 8.94441 25.7012 8.94441C25.6534 8.72094 25.6017 8.49358 25.5475 8.26753C25.4693 8.17452 25.3924 8.08086 25.3117 7.9898C25.2529 7.92392 25.1935 7.85868 25.1334 7.79474C25.0043 7.65523 24.8719 7.51895 24.7356 7.38525C24.6464 7.29805 24.5547 7.21344 24.463 7.12948C24.3487 7.0242 24.2344 6.91827 24.1162 6.81752C23.9618 6.6864 23.8029 6.55981 23.6427 6.43645C23.5794 6.38736 23.5187 6.33634 23.4548 6.28919C22.2018 5.36364 20.766 4.67125 19.2113 4.27209C19.0712 4.29857 18.931 4.32828 18.7928 4.36833C18.1372 4.55628 17.5191 4.88891 16.8422 4.97287C16.4089 5.02713 15.9697 4.97675 15.5343 5.00194C14.4906 5.06265 13.5256 5.55094 12.5962 6.0289C12.3882 6.13611 12.1441 6.32019 12.2106 6.54496C12.3049 6.86144 12.9198 6.84464 12.9056 7.17469C12.8978 7.35554 12.6808 7.45823 12.6311 7.63198C12.5917 7.76955 12.6653 7.91035 12.6957 8.05051C12.779 8.43739 12.5058 8.82944 12.1557 9.01417C11.8063 9.19889 11.3968 9.22408 11.0015 9.24539C11.0538 8.60662 10.3317 8.10735 9.69684 8.19454C9.06193 8.28109 8.55685 8.77971 8.2197 9.32419C8.10538 9.50956 8.00075 9.73045 8.06856 9.93778C8.14413 10.1645 8.38763 10.2782 8.57623 10.4235Z" fill="url(#paint1_radial_115_99)"/>
<path d="M15.9986 2.49756C8.54218 2.49756 2.49756 8.54218 2.49756 15.9986C2.49756 23.455 8.54218 29.4996 15.9986 29.4996C23.455 29.4996 29.4996 23.455 29.4996 15.9986C29.4996 8.54218 23.455 2.49756 15.9986 2.49756Z" fill="url(#paint2_radial_115_99)"/>
<path d="M7.27773 8.48972C7.64826 7.89117 8.2033 7.34363 8.9016 7.24762C9.59916 7.15237 10.3927 7.70066 10.3357 8.40271C10.77 8.37946 11.2193 8.35171 11.6041 8.14844C11.9881 7.94518 12.2889 7.51389 12.1974 7.08861C12.1644 6.93485 12.0833 6.77959 12.1261 6.62883C12.1809 6.43756 12.4194 6.3243 12.4276 6.12554C12.4434 5.76326 11.7676 5.78126 11.6633 5.43398C11.5898 5.18722 11.8583 4.9847 12.0871 4.86694C13.1094 4.34115 14.1693 3.80486 15.3168 3.7381C15.7954 3.71035 16.2784 3.76511 16.7547 3.70585C17.4988 3.61359 18.1776 3.24756 18.8984 3.0413C19.0506 2.9978 19.2044 2.96479 19.3582 2.93554C22.1154 3.64285 24.5343 5.18871 26.3157 7.29938C26.378 7.5574 26.4365 7.81617 26.4912 8.07194C26.4912 8.07194 26.4912 8.05844 26.396 8.1837C26.3007 8.30896 26.1357 8.35471 25.9804 8.38096C25.5064 8.46122 25.0143 8.43196 24.5538 8.29545C24.232 8.2002 23.92 8.05243 23.5847 8.03518C23.2495 8.01793 22.8707 8.18144 22.7799 8.50472C22.5932 9.17377 23.7032 9.59455 23.686 10.2884C24.01 9.88182 24.7151 9.83382 25.0481 10.2329C25.3811 10.6319 25.1464 11.3684 24.6326 11.4494C25.3631 11.8695 25.7179 12.777 25.6511 13.6171C25.5844 14.4572 25.1606 15.2312 24.6371 15.8913C24.2598 16.3676 23.7948 16.8184 23.2045 16.9624C22.7822 17.0659 22.3336 17.0006 21.9211 16.8626C20.9183 16.5266 20.1097 15.7893 19.3334 15.0707C19.0251 14.7857 18.7101 14.4917 18.5241 14.1152C18.1873 13.4341 18.3313 12.6285 18.3966 11.8717C18.4618 11.1149 18.3876 10.2404 17.7838 9.77907C17.6773 9.69731 17.5513 9.63131 17.417 9.63131C17.2903 9.63131 17.171 9.68981 17.063 9.75657C16.2612 10.2546 15.8854 11.3437 16.2087 12.231C16.5424 13.1468 17.492 13.7694 17.6968 14.7219C17.7178 14.8187 17.729 14.9245 17.681 15.0107C17.6293 15.106 17.519 15.1532 17.4133 15.1765C16.7015 15.3347 15.7991 14.7565 15.3093 15.2965C15.1211 15.5043 15.0881 15.8065 14.9598 16.0556C14.8316 16.3046 14.4895 16.5026 14.2818 16.3143C14.2293 16.2671 14.1955 16.2011 14.1745 16.1336C13.99 15.5403 14.6846 14.7932 14.251 14.3477C14.1543 14.2479 14.0192 14.1962 13.9022 14.1212C13.4822 13.8519 13.3277 13.2398 13.57 12.8033C12.9932 12.9488 12.8087 13.7701 12.2386 13.9426C12.0984 13.9854 11.9476 13.9824 11.8096 14.0326C11.4923 14.1474 11.3288 14.5659 11.4833 14.8652C11.0678 15.1045 10.6732 14.4444 10.197 14.3889C9.85493 14.3492 9.56616 14.6312 9.23388 14.7227C8.72759 14.8622 8.14555 14.4549 8.10279 13.9314C8.07879 13.6344 8.15005 13.2346 7.87253 13.1251C7.76977 13.0846 7.65051 13.1086 7.547 13.0703C7.22522 12.9526 7.35724 12.4598 7.58675 12.2055C7.85752 11.9062 8.1883 11.661 8.55433 11.49C8.8296 11.3617 9.17988 11.1922 9.15738 10.8892C9.14988 10.7841 9.09287 10.6859 9.09962 10.5809C9.11987 10.2651 9.67341 10.0858 9.5369 9.80082C9.32989 9.52855 8.90686 9.79707 8.69384 10.0648C8.48082 10.3326 8.07804 10.6191 7.85077 10.3626C8.03379 10.1751 7.87252 9.85408 7.66551 9.69431C7.45849 9.53455 7.18997 9.40929 7.10897 9.16027C7.03696 8.936 7.15172 8.69298 7.27773 8.48972ZM22.7904 20.4246C22.4807 19.8681 23.0679 19.1578 22.8572 18.557C22.7049 18.1242 22.2076 17.9314 21.7606 17.8272C21.4111 17.7462 21.057 17.6854 20.7 17.6472C20.4892 17.6247 20.2732 17.6097 20.0662 17.6562C19.5044 17.7822 19.1391 18.3162 18.8751 18.8278C18.7296 19.109 18.5946 19.4038 18.5638 19.7188C18.5308 20.0534 18.6164 20.3871 18.7124 20.7097C18.8691 21.2347 19.0859 21.7897 19.5502 22.08C19.9657 22.3395 20.5673 22.4468 20.9678 22.1648C21.8634 21.5332 22.5549 21.4327 22.7402 21.336C22.9254 21.2392 23.0709 21.0322 23.0259 20.8274C22.9929 20.6744 22.8669 20.5611 22.7904 20.4246ZM19.2697 24.0684C19.3979 23.8472 19.3027 23.5599 19.1526 23.3536C19.0026 23.1466 18.7994 22.9763 18.6816 22.7498C18.4438 22.2923 18.5601 21.6862 18.2983 21.2647C17.711 20.3204 16.847 19.8951 16.0662 20.2244C15.2141 20.5836 14.8916 21.6637 14.1018 22.1453C13.9592 22.2323 13.7957 22.3058 13.7125 22.4498C13.5475 22.7356 13.8077 23.0971 14.1085 23.2336C14.41 23.3694 14.7596 23.3874 15.0423 23.5584C15.1331 23.6131 15.2171 23.6866 15.2576 23.7841C15.3656 24.0414 15.1346 24.3347 15.1991 24.6062C15.2771 24.9325 15.7069 25.015 16.0399 24.9685C16.3722 24.922 16.7427 24.8222 17.0202 25.0112C17.222 25.1493 17.354 25.429 17.5985 25.4305C17.9586 25.432 17.9901 24.8882 18.2383 24.628C18.5136 24.3384 19.0694 24.4142 19.2697 24.0684ZM20.697 26.2826C20.388 26.0883 20.004 26.0351 19.6424 26.0831C19.2802 26.1303 18.9374 26.2728 18.6149 26.4446C18.3816 26.5691 18.1506 26.7161 17.9968 26.9321C17.843 27.1482 17.7823 27.4467 17.9053 27.6814C18.0568 27.9687 18.4281 28.0685 18.7506 28.031C18.9374 28.0092 19.1736 27.974 19.2697 28.1352C19.2892 28.1675 19.2997 28.2057 19.3282 28.2305C19.3769 28.274 19.4519 28.2597 19.5134 28.2402C20.145 28.037 20.5853 27.5959 20.7435 27.3994C20.9348 27.1624 21.096 26.8399 20.9678 26.5639C20.9123 26.4446 20.8088 26.3531 20.697 26.2826ZM16.9437 26.0381C16.6775 25.8798 16.3474 26.1273 16.0392 26.1018C15.6566 26.0703 15.4421 25.6503 15.1136 25.4515C14.8286 25.279 14.443 25.291 14.1693 25.4808C14.0538 25.561 13.9075 25.6735 13.792 25.5933C13.7155 25.5393 13.7087 25.429 13.6577 25.3495C13.561 25.198 13.3427 25.2003 13.1634 25.2205C13.1102 25.2265 13.0532 25.234 13.0112 25.2678C12.9234 25.3398 12.9519 25.477 12.9429 25.5903C12.9077 26.0216 12.2731 26.1731 12.1719 26.5939C12.1546 26.6651 12.1516 26.7461 12.0984 26.7964C11.9941 26.8946 11.8306 26.7829 11.7353 26.6764C11.6333 26.5624 11.5283 26.4469 11.3948 26.3726C11.2613 26.2983 11.0903 26.2728 10.956 26.3448C10.821 26.4176 10.7497 26.6074 10.8353 26.7341C10.9125 26.8496 11.0858 26.8841 11.1368 27.0139C11.1615 27.0776 11.1503 27.1504 11.172 27.2157C11.205 27.3139 11.3063 27.3717 11.4023 27.4107C12.1314 27.7062 13.0277 27.4549 13.6982 27.8675C13.861 27.9672 14.0065 28.0925 14.1708 28.19C15.0191 28.697 15.6484 27.9245 15.7721 27.7565C15.8156 27.6972 15.8216 27.6199 15.8509 27.5524C15.8914 27.4594 15.9739 27.3927 16.0519 27.3282C16.3969 27.0394 16.706 26.7079 16.9715 26.3448C17.012 26.2893 17.0532 26.2248 17.0405 26.1573C17.03 26.1048 16.9895 26.0643 16.9437 26.0381Z" fill="url(#paint3_radial_115_99)"/>
<path d="M29.4996 15.9986C29.4996 8.54227 23.4549 2.49756 15.9986 2.49756C15.9986 2.49756 21.9991 5.17452 21.9991 15.9986C21.9991 26.8227 15.9986 29.4996 15.9986 29.4996C23.4549 29.4996 29.4996 23.4549 29.4996 15.9986Z" fill="url(#paint4_radial_115_99)"/>
<path d="M17.4845 3.53185C17.9578 3.38109 18.4198 3.17857 18.8984 3.04131C19.0506 2.99781 19.2044 2.96481 19.3582 2.93555C20.7053 3.28133 21.9699 3.82962 23.1204 4.54368C23.158 4.56693 23.197 4.58868 23.2337 4.61268C23.4737 4.76494 23.7062 4.92696 23.9358 5.09347C24.022 5.15647 24.1075 5.22023 24.1923 5.28548C24.3993 5.44375 24.6033 5.60576 24.8013 5.77527C24.8951 5.85628 24.9851 5.94178 25.0766 6.02504C25.5154 6.42332 25.9332 6.84485 26.3157 7.29864C26.378 7.55666 26.4365 7.81543 26.4912 8.0712C26.4912 8.0712 26.4912 8.0577 26.396 8.18296C26.3007 8.30822 26.1357 8.35397 25.9804 8.38022C25.5064 8.46048 25.0143 8.43123 24.5538 8.29472C24.232 8.19946 23.92 8.0517 23.5847 8.03445C23.2495 8.01719 22.8707 8.18071 22.7799 8.50398C22.5932 9.17303 23.7032 9.59382 23.686 10.2876C24.01 9.88109 24.7151 9.83308 25.0481 10.2321C25.3811 10.6311 25.1464 11.3677 24.6326 11.4487C25.3631 11.8687 25.7179 12.7763 25.6511 13.6164C25.5844 14.4564 25.1606 15.2305 24.6371 15.8906C24.2598 16.3668 23.7948 16.8176 23.2045 16.9616C22.8032 17.0599 22.3786 17.0036 21.9834 16.8791C21.9931 16.5919 21.9991 16.2993 21.9991 15.9986C21.9991 8.6855 19.2614 5.09422 17.4845 3.53185ZM22.7904 20.4246C22.4807 19.8681 23.0679 19.1578 22.8572 18.557C22.7252 18.1797 22.3299 17.99 21.9346 17.8775C21.8274 19.4263 21.5903 20.7832 21.2686 21.9675C22.0156 21.5115 22.5759 21.4215 22.7402 21.336C22.9254 21.2392 23.0709 21.0322 23.0259 20.8274C22.9929 20.6744 22.8669 20.5612 22.7904 20.4246ZM20.697 26.2826C20.388 26.0883 20.004 26.0351 19.6424 26.0831C19.5817 26.0913 19.5254 26.1153 19.4654 26.1281C19.0071 26.8414 18.5353 27.4204 18.0921 27.8825C18.2743 28.0107 18.5233 28.058 18.7514 28.031C18.9381 28.0092 19.1744 27.974 19.2704 28.1352C19.2899 28.1675 19.3004 28.2057 19.3289 28.2305C19.3777 28.274 19.4527 28.2598 19.5142 28.2403C20.1457 28.037 20.586 27.596 20.7443 27.3994C20.9355 27.1624 21.0968 26.8399 20.9685 26.5639C20.9123 26.4446 20.8088 26.3531 20.697 26.2826Z" fill="url(#paint5_radial_115_99)"/>
</g>
<defs>
<radialGradient id="paint0_radial_115_99" cx="0" cy="0" r="1" gradientUnits="userSpaceOnUse" gradientTransform="translate(16.1686 16.1467) rotate(180) scale(12.2847)">
<stop stop-color="#FFF3C4"/>
<stop offset="0.629" stop-color="#FFF0BD"/>
<stop offset="0.701" stop-color="#FEEDB8"/>
<stop offset="0.79" stop-color="#FBE2A8"/>
<stop offset="0.89" stop-color="#F7D28F"/>
<stop offset="0.995" stop-color="#5D5446"/>
<stop offset="1" stop-color="#E6B976"/>
</radialGradient>
<radialGradient id="paint1_radial_115_99" cx="0" cy="0" r="1" gradientUnits="userSpaceOnUse" gradientTransform="translate(16.064 16.1292) rotate(180) scale(12.1949 12.1949)">
<stop stop-color="#F5E3A1"/>
<stop offset="0.63" stop-color="#FFE19E"/>
<stop offset="0.703" stop-color="#FDDD99"/>
<stop offset="0.795" stop-color="#F7D189"/>
<stop offset="0.896" stop-color="#FFC15A"/>
<stop offset="1" stop-color="#4A453F"/>
</radialGradient>
<radialGradient id="paint2_radial_115_99" cx="0" cy="0" r="1" gradientUnits="userSpaceOnUse" gradientTransform="translate(15.9986 15.9986) rotate(180) scale(13.501)">
<stop stop-color="#A7A6B5"/>
<stop offset="0.629" stop-color="#7F7E8A"/>
<stop offset="0.728" stop-color="#7A7985"/>
<stop offset="0.85" stop-color="#6A6977"/>
<stop offset="0.986" stop-color="#515061"/>
<stop offset="0.999" stop-color="#4E4D5E"/>
</radialGradient>
<radialGradient id="paint3_radial_115_99" cx="0" cy="0" r="1" gradientUnits="userSpaceOnUse" gradientTransform="translate(15.8591 15.9273) rotate(180) scale(13.474 13.474)">
<stop offset="0.001" stop-color="#9493A1"/>
<stop offset="0.628" stop-color="#74737D"/>
<stop offset="0.716" stop-color="#6F6E78"/>
<stop offset="0.825" stop-color="#5F5E69"/>
<stop offset="0.946" stop-color="#464550"/>
<stop offset="1" stop-color="#383742"/>
</radialGradient>
<radialGradient id="paint4_radial_115_99" cx="0" cy="0" r="1" gradientUnits="userSpaceOnUse" gradientTransform="translate(15.9896 15.9986) rotate(180) scale(13.4905)">
<stop stop-color="#FFFFFE"/>
<stop offset="0.629" stop-color="#FFF0BD"/>
<stop offset="0.701" stop-color="#FEEDB8"/>
<stop offset="0.79" stop-color="#FBE2A8"/>
<stop offset="0.89" stop-color="#F7D28F"/>
<stop offset="0.995" stop-color="#433E37"/>
<stop offset="1" stop-color="#585755"/>
</radialGradient>
<radialGradient id="paint5_radial_115_99" cx="0" cy="0" r="1" gradientUnits="userSpaceOnUse" gradientTransform="translate(15.9499 15.9663) rotate(180) scale(13.4755 13.4755)">
<stop stop-color="#FCE594"/>
<stop offset="0.63" stop-color="#FFE09B"/>
<stop offset="0.703" stop-color="#FFC752"/>
<stop offset="0.795" stop-color="#E3C489"/>
<stop offset="0.896" stop-color="#F6CB82"/>
<stop offset="1" stop-color="#373635"/>
</radialGradient>
<clipPath id="clip0_115_99">
<rect width="31" height="31" fill="white" transform="translate(31 31) rotate(180)"/>
</clipPath>
</defs>
</svg>
