<svg width="125" height="125" viewBox="0 0 125 125" fill="none" xmlns="http://www.w3.org/2000/svg">
<path d="M62.5047 7.50061C55.1995 7.50061 49.1346 12.7452 47.8161 19.6891C46.0777 20.2946 44.3979 21.0271 42.8157 21.8767C36.9754 25.0117 32.3462 30.3247 32.3462 37.5029C32.3462 41.4876 33.0786 45.1305 34.7682 48.1288C34.1627 48.0116 33.5572 47.8748 32.9712 47.8162C32.6001 47.7869 32.2583 47.7283 31.8774 47.7381C30.7347 47.7576 29.5334 48.0311 28.5177 48.7538C27.1602 49.7207 26.3789 51.2247 25.9394 52.8948C25.8906 53.0803 25.832 53.3245 25.7831 53.5198C24.8553 53.3928 23.6736 53.1292 22.1891 52.426C21.7008 52.1916 21.1441 51.967 20.6265 51.6447C20.1089 51.3224 19.601 50.9122 19.0639 50.4727C17.9896 49.6035 16.9153 48.4901 15.8605 47.0349C15.3331 46.3024 14.7862 45.5211 14.2979 44.6129C11.8563 40.0813 10.0007 33.1374 10.0007 22.5018C10.0007 22.4236 10.0007 22.3455 10.0007 22.2674C10.0007 22.1893 10.0007 22.1111 10.0007 22.033C9.98114 21.9256 9.95184 21.8181 9.92254 21.7205C9.88349 21.5837 9.82488 21.4568 9.76628 21.3298C9.67837 21.1638 9.57096 21.0075 9.45375 20.861C9.40492 20.8024 9.35609 20.7536 9.29749 20.7048C9.02404 20.3922 8.67244 20.1481 8.28179 20.0016C7.94974 19.9039 7.60791 19.8844 7.26608 19.9234C7.15865 19.943 7.05122 19.9723 6.95356 20.0016C5.79137 20.2653 4.97098 21.3103 5.00028 22.5018C5.00028 40.4719 10.2546 49.7793 15.9386 54.3792C19.3862 57.1627 22.9509 58.1002 25.2362 58.4421C25.0702 61.1473 25.0018 64.4093 25.0018 68.6772C25.0018 69.0972 25.0702 69.5074 25.08 69.9273H5.00028C4.92215 69.9273 4.84402 69.9273 4.76589 69.9273C3.34 69.9957 2.23639 71.197 2.30477 72.6229C2.37313 74.0488 3.5744 75.1524 5.00031 75.084H25.4706C26.0176 79.5668 27.0821 84.0203 28.7522 88.21C26.291 88.7765 22.3845 89.9582 18.2826 92.351C11.7879 96.1403 5.00031 103.299 5.00031 115.009C4.99053 115.908 5.45932 116.747 6.24063 117.206C7.02194 117.656 7.97904 117.656 8.76035 117.206C9.54166 116.747 10.0104 115.908 10.0007 115.009C10.0007 105.155 15.2452 99.8711 20.7828 96.6482C24.8944 94.2554 29.0158 93.1909 30.8617 92.8198C31.9457 94.8902 33.1568 96.8728 34.5338 98.7577C40.8234 107.333 50.2284 113.681 62.1922 115.009H62.8173C74.7811 113.681 84.1861 107.333 90.4757 98.7577C91.8527 96.8728 93.0638 94.8902 94.1478 92.8198C95.9937 93.1909 100.115 94.2554 104.227 96.6482C109.764 99.8711 115.009 105.155 115.009 115.009C114.999 115.908 115.468 116.747 116.249 117.206C117.03 117.656 117.988 117.656 118.769 117.206C119.55 116.747 120.019 115.908 120.009 115.009C120.009 103.299 113.222 96.1403 106.727 92.351C102.625 89.9582 98.7185 88.7765 96.2573 88.21C97.9274 84.0203 98.9919 79.5668 99.5389 75.084H120.009C121.435 75.084 122.588 73.9316 122.588 72.5057C122.588 71.0798 121.435 69.9274 120.009 69.9274H99.9295C99.9393 69.5074 100.008 69.0972 100.008 68.6773C100.008 64.3996 99.8807 61.1767 99.617 58.5202C100.516 58.3933 101.668 58.1393 102.898 57.7389C103.533 57.5338 104.168 57.2701 104.852 56.9576C105.535 56.6451 106.248 56.2935 106.961 55.8638C107.674 55.4341 108.358 54.9555 109.071 54.3793C109.784 53.8031 110.497 53.1585 111.18 52.426C111.864 51.6935 112.567 50.9025 113.212 50.0039C113.856 49.1054 114.423 48.119 115.009 47.035C115.595 45.9509 116.142 44.7301 116.65 43.4409C118.671 38.294 120.009 31.4869 120.009 22.5018C120.009 22.4237 120.009 22.3455 120.009 22.2674C120.009 22.1893 120.009 22.1111 120.009 22.033C119.98 21.8474 119.921 21.6619 119.853 21.4861C119.804 21.4275 119.755 21.3787 119.697 21.3298C119.638 21.1638 119.56 21.0075 119.462 20.861C119.413 20.8024 119.365 20.7536 119.306 20.7048C119.228 20.6462 119.15 20.5974 119.072 20.5485C118.574 20.109 117.929 19.8844 117.275 19.9235C117.167 19.943 117.06 19.9723 116.962 20.0016C116.484 20.109 116.054 20.3532 115.712 20.7048C115.653 20.7829 115.605 20.861 115.556 20.9392C115.439 21.0564 115.331 21.1931 115.243 21.3298C115.214 21.408 115.185 21.4861 115.165 21.5642C115.097 21.7107 115.048 21.8768 115.009 22.033C114.999 22.1404 114.999 22.2381 115.009 22.3455C115.009 22.3944 115.009 22.453 115.009 22.5018C115.009 39.5148 110.262 46.9861 105.946 50.4727C102.967 52.885 100.213 53.4515 98.7575 53.598C98.2399 52.0939 97.4293 50.7852 96.1792 49.9258C94.851 49.0078 93.2298 48.7245 91.7257 48.7538C91.0714 48.7636 90.3877 48.9003 89.6943 48.9882C91.7746 45.8337 92.6633 41.8881 92.6633 37.503C92.6633 30.3247 88.0341 25.0118 82.1938 21.8768C80.6409 21.0466 78.9806 20.363 77.2715 19.7672C75.9921 12.7647 69.8491 7.50061 62.5047 7.50061ZM62.5047 12.501C66.4992 12.501 69.8881 14.8449 71.4898 18.2046C68.4915 17.6283 65.4542 17.3451 62.5047 17.3451C59.526 17.3451 56.4594 17.6186 53.4415 18.2046C55.0432 14.8254 58.5005 12.501 62.5047 12.501ZM62.5047 22.658C68.4232 22.658 74.9276 23.9277 79.6936 26.4865C84.4596 29.0453 87.3504 32.4732 87.3504 37.5029C87.3504 43.1577 86.1687 46.3611 82.7407 48.6757C79.3127 50.9903 72.9157 52.3478 62.5047 52.3478C52.0938 52.3478 45.6968 50.9903 42.2688 48.6757C38.8408 46.3611 37.6591 43.1577 37.6591 37.5029C37.6591 32.4732 40.5499 29.0453 45.3159 26.4865C50.0819 23.9277 56.5863 22.658 62.5047 22.658ZM31.643 52.7385C31.7992 52.7092 32.0727 52.6994 32.5024 52.7385C34.2115 52.8948 37.7177 54.0863 42.6595 55.2387C43.558 55.4438 44.5541 55.6586 45.5503 55.8637C49.9549 57.1529 55.473 57.6608 62.5047 57.6608C68.5306 57.6608 73.4431 57.2506 77.5059 56.3325C77.6036 56.313 77.7208 56.3521 77.8184 56.3325C79.215 56.1177 80.514 55.8637 81.725 55.6293C86.5691 54.6918 90.0655 53.7933 91.882 53.7542C92.7903 53.7347 93.0931 53.93 93.2884 54.0667C93.4837 54.2035 93.7572 54.4183 94.0697 55.395C94.6948 57.358 95.0073 61.6747 95.0073 68.6772C95.0073 78.3362 91.9992 88.1709 86.4129 95.7887C81.3441 102.694 74.1561 107.782 65.0049 109.54V72.5057C65.0245 71.7341 64.6826 71.0016 64.0869 70.5133C63.5009 70.025 62.7098 69.8394 61.9578 70.0055C60.7956 70.2692 59.9753 71.3142 60.0046 72.5057V109.54C50.8534 107.782 43.6654 102.694 38.5966 95.7887C33.0103 88.171 30.0022 78.3362 30.0022 68.6773C30.0022 60.9911 30.2268 56.3423 30.7835 54.223C31.0668 53.1585 31.3598 52.8557 31.4086 52.8167C31.4379 52.7971 31.4867 52.7678 31.643 52.7385Z" fill="#FF2B91"/>
</svg>
